<svg viewBox="0 0 446 446" xmlns="http://www.w3.org/2000/svg"><defs><linearGradient x1="33.339%" y1="33.339%" y2="100%" id="a"><stop stop-color="#FD0" offset="0%"/><stop stop-color="#FF8200" offset="100%"/></linearGradient></defs><g fill="none" fill-rule="evenodd"><path d="M446 354.535C446 404.841 404.841 446 354.535 446H91.465C41.16 446 0 404.841 0 354.535V91.465C0 41.159 41.159 0 91.466 0h263.07C404.84 0 446 41.159 446 91.465v263.07z" fill="url(#a)"/><path d="M203.128 148.957c8.37 11.27 13.491 25.085 14.088 40.071v2.58c0 14.602-4.331 28.211-11.837 39.53l-59.831 91.289-1.612 2.46a3.526 3.526 0 0 1-2.949 1.593H92.242c-2.347 0-3.755-2.606-2.469-4.569l39.683-60.547C97.691 254.037 74 225.598 74 191.608l.066-2.58c.529-14.947 5.628-28.729 13.96-39.982C101.071 131.426 122.002 120 145.608 120c23.567 0 44.47 11.387 57.52 28.957zm-36.576 55.806l1.999-3.05a26.086 26.086 0 0 0 3.252-12.685c-.025-14.446-11.742-26.15-26.195-26.15s-26.169 11.704-26.197 26.196c0 14.469 11.729 26.198 26.197 26.198 8.576 0 16.165-4.14 20.944-10.509zm191.095-55.806c8.37 11.27 13.492 25.085 14.089 40.071v2.58c0 14.602-4.331 28.211-11.838 39.53l-59.831 91.289-1.612 2.46a3.526 3.526 0 0 1-2.948 1.593H246.76c-2.346 0-3.754-2.606-2.468-4.569l39.683-60.547c-31.765-7.327-55.456-35.766-55.456-69.756l.065-2.58c.53-14.947 5.629-28.729 13.96-39.982C255.59 131.426 276.523 120 300.129 120c23.567 0 44.47 11.387 57.519 28.957zm-36.575 55.806l1.999-3.05a26.097 26.097 0 0 0 3.252-12.685c-.025-14.446-11.742-26.15-26.195-26.15s-26.17 11.704-26.198 26.196c0 14.469 11.73 26.198 26.198 26.198 8.576 0 16.165-4.14 20.944-10.509z" fill="#000" fill-rule="nonzero"/></g></svg>
