<svg xmlns="http://www.w3.org/2000/svg" width="37.904" height="38" viewBox="0 0 37.904 38">
  <g id="index_1_" data-name="index (1)" transform="translate(-8.096 52)">
    <path id="Caminho_1" data-name="Caminho 1" d="M16.9-44.3c-8,7.7-10.2,11.4-8,13.6.8.8,1.1.6,1.1-.7a10.312,10.312,0,0,1,2.1-4.7c2.2-3.2,4.2-3.5,15.8-2.3l6.2.7-3,1.8C24.8-32.1,19.7-21.4,22-17c1.5,2.9,2.7,2.5,4-1.4.9-3,7.9-10.6,9.6-10.6A20.194,20.194,0,0,1,39-27.5c2.7,1.4,3,1.4,4.9-1.1A9.507,9.507,0,0,0,46-33.3C46-36.3,30.1-52,27.1-52,25.6-52,22.1-49.4,16.9-44.3ZM35.6-33l2.7,1.1-4.2,2.1A21.9,21.9,0,0,0,24.1-19c-.9,2.4-1,2.4-1-.8-.1-3.6,2-8.5,5.2-12C30.6-34.3,31.7-34.5,35.6-33Z" fill="#000"/>
    <path id="Caminho_2" data-name="Caminho 2" d="M34.2-22.9c-6,3-10.4,8.9-6.6,8.9,1.7,0,13.6-10.9,11.9-11A30.9,30.9,0,0,0,34.2-22.9Z" fill="#000"/>
  </g>
</svg>
