<svg width="56" height="51" viewBox="0 0 56 51" fill="none" xmlns="http://www.w3.org/2000/svg">
<path d="M40.7882 39.035H47.1308C49.5028 39.035 51.1529 37.9521 51.1529 35.7348C51.1529 33.5175 49.5028 32.4346 47.1308 32.4346H40.7882V39.035ZM40.7882 50.5341H49.2449C53.7311 50.5341 56.0516 48.2136 56.0516 43.7274V39.035H55.8969C54.6077 42.954 51.256 44.14 47.2854 44.14H40.9945C40.8398 44.14 40.7882 44.1915 40.7882 44.3462V50.5341ZM28.8766 35.7348L35.3738 42.0258V29.4438L28.8766 35.7348ZM6.80663 50.5341H35.3738V49.0902C35.3738 46.5635 36.2505 45.1197 38.2615 44.3462V44.1915H30.2689C29.8564 44.1915 29.7017 44.14 29.3923 43.8306L25.2155 39.4991L20.884 43.8821C20.6777 44.0884 20.523 44.1915 20.1105 44.1915H13.6648C13.3039 44.1915 13.3039 43.9853 13.5101 43.779L21.7606 35.7864L13.3554 27.639C13.1492 27.4328 13.2007 27.2265 13.5617 27.2265H20.0589C20.4199 27.2265 20.5746 27.2781 20.7808 27.5359L25.3186 32.0737L29.5985 27.5359C29.8048 27.3297 29.9595 27.2265 30.2689 27.2265H47.2339C51.1529 27.2265 54.6077 28.5157 55.8969 32.4346H56.0516V6.80663C56.0516 2.32044 53.7311 0 49.2449 0H6.80663C2.32044 0 0 2.32044 0 6.80663V43.779C0 48.2136 2.32044 50.5341 6.80663 50.5341Z" fill="white"/>
</svg>
